<mxfile host="app.diagrams.net" modified="2023-09-26T06:36:26.743Z" agent="Mozilla/5.0 (Macintosh; Intel Mac OS X 10_15_7) AppleWebKit/605.1.15 (KHTML, like Gecko) Version/16.5 Safari/605.1.15" version="21.8.2" etag="aUPXCgdoIv_Yv-v5pFJ0" type="github">
  <diagram name="Page-1" id="bUXriUBJMiruiuUv8U5J">
    <mxGraphModel>
      <root>
        <mxCell id="0" />
        <mxCell id="1" parent="0" />
      </root>
    </mxGraphModel>
  </diagram>
</mxfile>
